<?plantuml 1.2026.1?><svg xmlns="http://www.w3.org/2000/svg" xmlns:xlink="http://www.w3.org/1999/xlink" contentStyleType="text/css" data-diagram-type="DESCRIPTION" height="587px" preserveAspectRatio="none" style="width:367px;height:587px;background:#FFFFFF;" version="1.1" viewBox="0 0 367 587" width="367px" zoomAndPan="magnify"><defs/><g><!--cluster Discord Server--><g class="cluster" data-qualified-name="Discord Server" data-source-line="4" id="ent0004"><rect fill="none" height="574" rx="2.5" ry="2.5" style="stroke:#181818;stroke-width:1;" width="290.22" x="70.86" y="7"/><text fill="#000000" font-family="sans-serif" font-size="14" font-weight="bold" lengthAdjust="spacing" textLength="116.4775" x="157.7312" y="21.9951">Discord Server</text></g><!--cluster Text Channel--><g class="cluster" data-qualified-name="Discord Server.Text Channel" data-source-line="5" id="ent0005"><rect fill="none" height="507" rx="2.5" ry="2.5" style="stroke:#181818;stroke-width:1;" width="242.22" x="94.86" y="50"/><text fill="#000000" font-family="sans-serif" font-size="14" font-weight="bold" lengthAdjust="spacing" textLength="103.5576" x="164.1912" y="64.9951">Text Channel</text></g><!--entity Join Queue--><g class="entity" data-qualified-name="Discord Server.Text Channel.Join Queue" data-source-line="6" id="ent0006"><ellipse cx="215.969" cy="165.0036" fill="#F1F1F1" rx="56.669" ry="14.5236" style="stroke:#181818;stroke-width:0.5;"/><text fill="#000000" font-family="sans-serif" font-size="14" lengthAdjust="spacing" textLength="75.8994" x="178.0193" y="169.6521">Join Queue</text></g><!--entity Leave Queue--><g class="entity" data-qualified-name="Discord Server.Text Channel.Leave Queue" data-source-line="7" id="ent0008"><ellipse cx="215.9733" cy="100.0047" fill="#F1F1F1" rx="64.5733" ry="15.3147" style="stroke:#181818;stroke-width:0.5;"/><text fill="#000000" font-family="sans-serif" font-size="14" lengthAdjust="spacing" textLength="92.333" x="169.8068" y="104.6531">Leave Queue</text></g><!--entity View Leaderboard--><g class="entity" data-qualified-name="Discord Server.Text Channel.View Leaderboard" data-source-line="8" id="ent0010"><ellipse cx="215.9654" cy="388.0011" fill="#F1F1F1" rx="78.4054" ry="18.0811" style="stroke:#181818;stroke-width:0.5;"/><text fill="#000000" font-family="sans-serif" font-size="14" lengthAdjust="spacing" textLength="126.9023" x="152.5142" y="392.6495">View Leaderboard</text></g><!--entity View Spanner Count--><g class="entity" data-qualified-name="Discord Server.Text Channel.View Spanner Count" data-source-line="9" id="ent0012"><ellipse cx="215.9651" cy="316.003" fill="#F1F1F1" rx="85.0651" ry="19.413" style="stroke:#181818;stroke-width:0.5;"/><text fill="#000000" font-family="sans-serif" font-size="14" lengthAdjust="spacing" textLength="142.4746" x="144.7278" y="320.6515">View Spanner Count</text></g><!--entity Check-in / Cancel Check-in--><g class="entity" data-qualified-name="Discord Server.Text Channel.Check-in . Cancel Check-in" data-source-line="10" id="ent0014"><ellipse cx="215.9688" cy="238.0018" fill="#F1F1F1" rx="105.1088" ry="23.4218" style="stroke:#181818;stroke-width:0.5;"/><text fill="#000000" font-family="sans-serif" font-size="14" lengthAdjust="spacing" textLength="187.2568" x="122.3404" y="242.6502">Check-in / Cancel Check-in</text></g><!--entity Configure Bot--><g class="entity" data-qualified-name="Discord Server.Text Channel.Configure Bot" data-source-line="12" id="ent0016"><ellipse cx="215.9729" cy="525.0026" fill="#F1F1F1" rx="66.0629" ry="15.6126" style="stroke:#181818;stroke-width:0.5;"/><text fill="#000000" font-family="sans-serif" font-size="14" lengthAdjust="spacing" textLength="96.2705" x="167.8376" y="529.651">Configure Bot</text></g><!--entity View Audit Trail--><g class="entity" data-qualified-name="Discord Server.Text Channel.View Audit Trail" data-source-line="13" id="ent0018"><ellipse cx="215.9712" cy="458.0042" fill="#F1F1F1" rx="71.3712" ry="16.6742" style="stroke:#181818;stroke-width:0.5;"/><text fill="#000000" font-family="sans-serif" font-size="14" lengthAdjust="spacing" textLength="109.8125" x="161.065" y="462.6527">View Audit Trail</text></g><!--entity User--><g class="entity" data-qualified-name="User" data-source-line="2" id="ent0002"><ellipse cx="28.4351" cy="208.35" fill="#F1F1F1" rx="8" ry="8" style="stroke:#181818;stroke-width:0.5;"/><path d="M28.4351,216.35 L28.4351,243.35 M15.4351,224.35 L41.4351,224.35 M28.4351,243.35 L15.4351,258.35 M28.4351,243.35 L41.4351,258.35" fill="none" style="stroke:#181818;stroke-width:0.5;"/><text fill="#000000" font-family="sans-serif" font-size="14" lengthAdjust="spacing" textLength="31.9102" x="12.48" y="272.8451">User</text></g><!--entity Admin--><g class="entity" data-qualified-name="Admin" data-source-line="3" id="ent0003"><ellipse cx="28.4321" cy="461.35" fill="#F1F1F1" rx="8" ry="8" style="stroke:#181818;stroke-width:0.5;"/><path d="M28.4321,469.35 L28.4321,496.35 M15.4321,477.35 L41.4321,477.35 M28.4321,496.35 L15.4321,511.35 M28.4321,496.35 L41.4321,511.35" fill="none" style="stroke:#181818;stroke-width:0.5;"/><text fill="#000000" font-family="sans-serif" font-size="14" lengthAdjust="spacing" textLength="44.8643" x="6" y="525.8451">Admin</text></g><!--link User to Join Queue--><g class="link" data-entity-1="ent0002" data-entity-2="ent0006" data-link-type="dependency" data-source-line="6" id="lnk7"><path d="M44.81,213.64 C49.85,207.36 55.96,201.2 62.86,197 C92.02,179.24 123.5408,171.9184 154.0008,168.3484" fill="none" id="User-to-Join Queue" style="stroke:#181818;stroke-width:1;"/><polygon fill="#181818" points="159.96,167.65,150.5556,164.7248,154.994,168.232,151.4868,172.6705,159.96,167.65" style="stroke:#181818;stroke-width:1;"/></g><!--link User to Leave Queue--><g class="link" data-entity-1="ent0002" data-entity-2="ent0008" data-link-type="dependency" data-source-line="7" id="lnk9"><path d="M32.3,199.41 C36.01,176.96 44.32,149.86 62.86,133 C86.55,111.45 114.9314,103.3933 145.0014,100.3033" fill="none" id="User-to-Leave Queue" style="stroke:#181818;stroke-width:1;"/><polygon fill="#181818" points="150.97,99.69,141.6083,96.631,145.9962,100.2011,142.426,104.589,150.97,99.69" style="stroke:#181818;stroke-width:1;"/></g><!--link User to View Leaderboard--><g class="link" data-entity-1="ent0002" data-entity-2="ent0010" data-link-type="dependency" data-source-line="8" id="lnk11"><path d="M30.93,276.49 C33.98,301.65 42.08,333.37 62.86,353 C82.96,371.98 105.262,380.4014 131.962,384.8614" fill="none" id="User-to-View Leaderboard" style="stroke:#181818;stroke-width:1;"/><polygon fill="#181818" points="137.88,385.85,129.662,380.4218,132.9483,385.0262,128.344,388.3125,137.88,385.85" style="stroke:#181818;stroke-width:1;"/></g><!--link User to View Spanner Count--><g class="link" data-entity-1="ent0002" data-entity-2="ent0012" data-link-type="dependency" data-source-line="9" id="lnk13"><path d="M44.55,261.8 C49.66,268.21 55.87,274.59 62.86,279 C85.51,293.28 107.3687,300.8142 132.9287,306.1942" fill="none" id="User-to-View Spanner Count" style="stroke:#181818;stroke-width:1;"/><polygon fill="#181818" points="138.8,307.43,130.8169,301.662,133.9072,306.4001,129.1691,309.4905,138.8,307.43" style="stroke:#181818;stroke-width:1;"/></g><!--link User to Check-in / Cancel Check-in--><g class="link" data-entity-1="ent0002" data-entity-2="ent0014" data-link-type="dependency" data-source-line="10" id="lnk15"><path d="M44.62,238 C59.76,238 78.46,238 104.4,238" fill="none" id="User-to-Check-in / Cancel Check-in" style="stroke:#181818;stroke-width:1;"/><polygon fill="#181818" points="110.4,238,101.4,234,105.4,238,101.4,242,110.4,238" style="stroke:#181818;stroke-width:1;"/></g><!--link Admin to Configure Bot--><g class="link" data-entity-1="ent0003" data-entity-2="ent0016" data-link-type="dependency" data-source-line="12" id="lnk17"><path d="M51.08,494.97 C78.23,499.94 119.7783,507.5585 156.6683,514.3185" fill="none" id="Admin-to-Configure Bot" style="stroke:#181818;stroke-width:1;"/><polygon fill="#181818" points="162.57,515.4,154.4384,509.8433,157.6519,514.4988,152.9964,517.7123,162.57,515.4" style="stroke:#181818;stroke-width:1;"/></g><!--link Admin to View Audit Trail--><g class="link" data-entity-1="ent0003" data-entity-2="ent0018" data-link-type="dependency" data-source-line="13" id="lnk19"><path d="M51.08,487.15 C77.18,482.51 116.1327,475.5809 152.3327,469.1409" fill="none" id="Admin-to-View Audit Trail" style="stroke:#181818;stroke-width:1;"/><polygon fill="#181818" points="158.24,468.09,148.6785,465.7282,153.3173,468.9658,150.0797,473.6045,158.24,468.09" style="stroke:#181818;stroke-width:1;"/></g><?plantuml-src VP1FQm913CNlyoaUdlIm-0q4kpsLNiG_z-bCt0sT9X9dL12_UtUj2riGtoda_V8IacYVaHN6JPiHsIXaLd4-P3LiZsIFSXb_M5nlUsaIOVBEnw0MiIOxaKrmTUWq0ZPqoQXRBq9fiF_KnwAg5fX-A0jMXGhDdlgVv4_q2jWndT5HaUnBlSKNrFhGdsAejKX-pjKjXU-gEscEsakWXA4pSwE1-oyU4ofxReeHtlHVw8YvRr-Mo1aRyvm6xEPklm00?></g></svg>